<svg width="50" height="50" viewBox="0 0 50 50" fill="none" xmlns="http://www.w3.org/2000/svg">
<path d="M43.75 24.4792H6.25001C4.25001 24.4792 2.60417 22.8334 2.60417 20.8334V13.9167C2.60417 12.5 3.58329 11.0625 4.89579 10.5417L23.6458 3.04175C24.4375 2.72925 25.5626 2.72925 26.3542 3.04175L45.1042 10.5417C46.4167 11.0625 47.3958 12.5209 47.3958 13.9167V20.8334C47.3958 22.8334 45.75 24.4792 43.75 24.4792ZM25 5.91676C24.9167 5.91676 24.8334 5.91665 24.7917 5.93748L6.06245 13.4376C5.93745 13.5001 5.72917 13.7709 5.72917 13.9167V20.8334C5.72917 21.125 5.95834 21.3542 6.25001 21.3542H43.75C44.0417 21.3542 44.2708 21.125 44.2708 20.8334V13.9167C44.2708 13.7709 44.0834 13.5001 43.9376 13.4376L25.1876 5.93748C25.1459 5.91665 25.0833 5.91676 25 5.91676Z" fill="#292D32"/>
<path d="M45.8333 47.3958H4.16667C3.31251 47.3958 2.60417 46.6875 2.60417 45.8333V39.5833C2.60417 37.5833 4.25001 35.9375 6.25001 35.9375H43.75C45.75 35.9375 47.3958 37.5833 47.3958 39.5833V45.8333C47.3958 46.6875 46.6875 47.3958 45.8333 47.3958ZM5.72917 44.2708H44.2708V39.5833C44.2708 39.2917 44.0417 39.0625 43.75 39.0625H6.25001C5.95834 39.0625 5.72917 39.2917 5.72917 39.5833V44.2708Z" fill="#292D32"/>
<path d="M8.33333 39.0626C7.47916 39.0626 6.77083 38.3542 6.77083 37.5001V22.9167C6.77083 22.0626 7.47916 21.3542 8.33333 21.3542C9.18749 21.3542 9.89583 22.0626 9.89583 22.9167V37.5001C9.89583 38.3542 9.18749 39.0626 8.33333 39.0626Z" fill="#292D32"/>
<path d="M16.6667 39.0626C15.8125 39.0626 15.1042 38.3542 15.1042 37.5001V22.9167C15.1042 22.0626 15.8125 21.3542 16.6667 21.3542C17.5208 21.3542 18.2292 22.0626 18.2292 22.9167V37.5001C18.2292 38.3542 17.5208 39.0626 16.6667 39.0626Z" fill="#292D32"/>
<path d="M25 39.0626C24.1458 39.0626 23.4375 38.3542 23.4375 37.5001V22.9167C23.4375 22.0626 24.1458 21.3542 25 21.3542C25.8542 21.3542 26.5625 22.0626 26.5625 22.9167V37.5001C26.5625 38.3542 25.8542 39.0626 25 39.0626Z" fill="#292D32"/>
<path d="M33.3333 39.0626C32.4792 39.0626 31.7708 38.3542 31.7708 37.5001V22.9167C31.7708 22.0626 32.4792 21.3542 33.3333 21.3542C34.1875 21.3542 34.8958 22.0626 34.8958 22.9167V37.5001C34.8958 38.3542 34.1875 39.0626 33.3333 39.0626Z" fill="#292D32"/>
<path d="M41.6667 39.0626C40.8125 39.0626 40.1042 38.3542 40.1042 37.5001V22.9167C40.1042 22.0626 40.8125 21.3542 41.6667 21.3542C42.5208 21.3542 43.2292 22.0626 43.2292 22.9167V37.5001C43.2292 38.3542 42.5208 39.0626 41.6667 39.0626Z" fill="#292D32"/>
<path d="M47.9167 47.3958H2.08333C1.22916 47.3958 0.520828 46.6874 0.520828 45.8333C0.520828 44.9791 1.22916 44.2708 2.08333 44.2708H47.9167C48.7708 44.2708 49.4792 44.9791 49.4792 45.8333C49.4792 46.6874 48.7708 47.3958 47.9167 47.3958Z" fill="#292D32"/>
<path d="M25 19.2708C22.4167 19.2708 20.3125 17.1666 20.3125 14.5833C20.3125 11.9999 22.4167 9.89575 25 9.89575C27.5833 9.89575 29.6875 11.9999 29.6875 14.5833C29.6875 17.1666 27.5833 19.2708 25 19.2708ZM25 13.0208C24.1458 13.0208 23.4375 13.7291 23.4375 14.5833C23.4375 15.4374 24.1458 16.1458 25 16.1458C25.8542 16.1458 26.5625 15.4374 26.5625 14.5833C26.5625 13.7291 25.8542 13.0208 25 13.0208Z" fill="#292D32"/>
</svg>
