<svg width="50" height="50" viewBox="0 0 50 50" fill="none" xmlns="http://www.w3.org/2000/svg">
<path d="M25.0203 4.16666C36.5266 4.16666 45.8537 13.4937 45.8537 25C45.8537 36.5062 36.5266 45.8333 25.0203 45.8333C13.5141 45.8333 4.18701 36.5062 4.18701 25C4.18701 13.4937 13.5141 4.16666 25.0203 4.16666ZM34.2745 16.6667C33.4808 16.6812 32.262 17.0979 26.4016 19.5042C22.288 21.2215 18.1859 22.9659 14.0953 24.7375C13.0953 25.1312 12.5745 25.5146 12.5266 25.8896C12.4349 26.6104 13.4849 26.8333 14.8058 27.2583C15.8828 27.6042 17.3328 28.0083 18.087 28.025C18.7703 28.0396 19.5328 27.7604 20.3745 27.1917C26.1245 23.3583 29.0891 21.4229 29.2766 21.3812C29.4078 21.3521 29.5891 21.3146 29.7141 21.4229C29.837 21.5312 29.8245 21.7354 29.8099 21.7917C29.7058 22.2312 24.3078 27.0792 23.9974 27.3979L23.8474 27.5479C22.7016 28.6792 21.5453 29.4187 23.5412 30.7167C25.3453 31.8896 26.3953 32.6375 28.2495 33.8417C29.437 34.6083 30.3683 35.5187 31.5933 35.4083C32.1578 35.3562 32.7391 34.8333 33.037 33.2708C33.7349 29.5833 35.1099 21.5875 35.4266 18.2917C35.4457 18.0183 35.4339 17.7436 35.3912 17.4729C35.3655 17.2544 35.2584 17.0535 35.0912 16.9104C34.8391 16.7062 34.4474 16.6646 34.2745 16.6667Z" fill="#21272A"/>
</svg>
