<svg width="50" height="50" viewBox="0 0 50 50" fill="none" xmlns="http://www.w3.org/2000/svg">
<path d="M25 45C30.3043 45 35.3914 42.8929 39.1421 39.1421C42.8929 35.3914 45 30.3043 45 25C45 19.6957 42.8929 14.6086 39.1421 10.8579C35.3914 7.10714 30.3043 5 25 5C19.6957 5 14.6086 7.10714 10.8579 10.8579C7.10714 14.6086 5 19.6957 5 25C5 30.3043 7.10714 35.3914 10.8579 39.1421C14.6086 42.8929 19.6957 45 25 45ZM25 50C11.1925 50 0 38.8075 0 25C0 11.1925 11.1925 0 25 0C38.8075 0 50 11.1925 50 25C50 38.8075 38.8075 50 25 50ZM17.225 27.925L10.98 25.9775C9.63 25.565 9.6225 24.635 11.2825 23.9675L35.615 14.5675C37.0275 13.9925 37.8275 14.72 37.37 16.5425L33.2275 36.0925C32.9375 37.485 32.1 37.8175 30.9375 37.175L24.56 32.455L21.5875 35.325C21.2825 35.62 21.035 35.8725 20.565 35.935C20.0975 36 19.7125 35.86 19.43 35.085L17.255 27.9075L17.225 27.9275V27.925Z" fill="white"/>
</svg>
