<svg width="50" height="50" viewBox="0 0 50 50" fill="none" xmlns="http://www.w3.org/2000/svg">
<g clip-path="url(#clip0_127_407)">
<path d="M4.17499 45.8333L6.99165 35.4833C5.13569 32.3018 4.1606 28.6833 4.16665 25C4.16665 13.4937 13.4937 4.16666 25 4.16666C36.5062 4.16666 45.8333 13.4937 45.8333 25C45.8333 36.5062 36.5062 45.8333 25 45.8333C21.3183 45.8393 17.7014 44.8649 14.5208 43.0104L4.17499 45.8333ZM17.4812 15.225C17.2122 15.2417 16.9493 15.3126 16.7083 15.4333C16.4823 15.5613 16.276 15.7213 16.0958 15.9083C15.8458 16.1437 15.7042 16.3479 15.5521 16.5458C14.7821 17.5479 14.3679 18.7779 14.375 20.0417C14.3792 21.0625 14.6458 22.0562 15.0625 22.9854C15.9146 24.8646 17.3167 26.8542 19.1687 28.6979C19.6146 29.1417 20.05 29.5875 20.5187 30.0021C22.8175 32.026 25.5568 33.4855 28.5187 34.2646L29.7042 34.4458C30.0896 34.4667 30.475 34.4375 30.8625 34.4187C31.4692 34.3874 32.0617 34.2231 32.5979 33.9375C32.9437 33.7542 33.1062 33.6625 33.3958 33.4792C33.3958 33.4792 33.4854 33.4208 33.6562 33.2917C33.9375 33.0833 34.1104 32.9354 34.3437 32.6917C34.5167 32.5125 34.6667 32.3021 34.7812 32.0625C34.9437 31.7229 35.1062 31.075 35.1729 30.5354C35.2229 30.1229 35.2083 29.8979 35.2021 29.7583C35.1937 29.5354 35.0083 29.3042 34.8062 29.2062L33.5937 28.6625C33.5937 28.6625 31.7812 27.8729 30.675 27.3687C30.5583 27.3179 30.4333 27.2889 30.3062 27.2833C30.1637 27.2687 30.0197 27.2847 29.8838 27.3304C29.748 27.376 29.6235 27.4502 29.5187 27.5479V27.5437C29.5083 27.5437 29.3687 27.6625 27.8625 29.4875C27.776 29.6037 27.6569 29.6915 27.5204 29.7397C27.3839 29.7879 27.2361 29.7944 27.0958 29.7583C26.9601 29.722 26.8271 29.6761 26.6979 29.6208C26.4396 29.5125 26.35 29.4708 26.1729 29.3937L26.1625 29.3896C24.9706 28.8692 23.8671 28.1663 22.8917 27.3062C22.6292 27.0771 22.3854 26.8271 22.1354 26.5854C21.3158 25.8005 20.6015 24.9125 20.0104 23.9437L19.8875 23.7458C19.7992 23.6128 19.7278 23.4694 19.675 23.3187C19.5958 23.0125 19.8021 22.7667 19.8021 22.7667C19.8021 22.7667 20.3083 22.2125 20.5437 21.9125C20.7398 21.6632 20.9226 21.4038 21.0917 21.1354C21.3375 20.7396 21.4146 20.3333 21.2854 20.0187C20.7021 18.5937 20.0979 17.175 19.4771 15.7667C19.3542 15.4875 18.9896 15.2875 18.6583 15.2479C18.5458 15.2354 18.4333 15.2229 18.3208 15.2146C18.041 15.2007 17.7607 15.2035 17.4812 15.2229V15.225Z" fill="#03053D"/>
</g>
<defs>
<clipPath id="clip0_127_407">
<rect width="50" height="50" fill="white"/>
</clipPath>
</defs>
</svg>
