<svg width="30" height="30" viewBox="0 0 30 30" fill="none" xmlns="http://www.w3.org/2000/svg">
<g clip-path="url(#clip0_127_97)">
<path d="M17.5 23.75H12.5C9.84784 23.75 7.3043 22.6964 5.42893 20.8211C3.55357 18.9457 2.5 16.4022 2.5 13.75V7.5H7.5V13.75C7.5 15.0761 8.02678 16.3479 8.96447 17.2855C9.90215 18.2232 11.1739 18.75 12.5 18.75V7.5H17.5V13.125L17.5375 13.12C18.9075 12.9491 20.1679 12.2836 21.0818 11.2487C21.9956 10.2137 22.5 8.88064 22.5 7.5H27.5L27.0725 9.63875C26.8165 10.9189 26.2714 12.1236 25.479 13.161C24.6866 14.1985 23.6677 15.0412 22.5 15.625V15.625C23.6354 16.0033 24.6483 16.6799 25.4325 17.5839C26.2167 18.488 26.7434 19.5863 26.9575 20.7638L27.5 23.75H22.5C22.5 22.3694 21.9956 21.0363 21.0818 20.0013C20.1679 18.9664 18.9075 18.3009 17.5375 18.13V23.755L17.5 23.75Z" stroke="#21272A" stroke-width="2" stroke-linecap="round" stroke-linejoin="round"/>
</g>
<defs>
<clipPath id="clip0_127_97">
<rect width="30" height="30" fill="white"/>
</clipPath>
</defs>
</svg>
