<svg width="100" height="100" viewBox="0 0 100 100" fill="none" xmlns="http://www.w3.org/2000/svg">
<path d="M66.6667 26.1657C66.6667 28.6717 65.6771 31.0785 63.9096 32.8589C59.8413 36.9587 55.8958 41.2336 51.6754 45.1847C50.7083 46.0772 49.1738 46.0447 48.2479 45.1117L36.0896 32.8589C32.4146 29.1553 32.4146 23.1761 36.0896 19.4725C39.8008 15.7325 45.8467 15.7325 49.5575 19.4725L49.9996 19.9179L50.4413 19.4728C52.2208 17.6787 54.6442 16.6667 57.1754 16.6667C59.7071 16.6667 62.1304 17.6786 63.9096 19.4725C65.6771 21.2531 66.6667 23.6599 66.6667 26.1657Z" stroke="#C70808" stroke-width="1.5" stroke-linejoin="round"/>
<path d="M75 83.3333L90.9346 67.3987C91.4033 66.93 91.6667 66.2942 91.6667 65.6312V43.75C91.6667 40.2982 88.8683 37.5 85.4167 37.5C81.965 37.5 79.1667 40.2982 79.1667 43.75V62.5" stroke="#C70808" stroke-width="1.5" stroke-linecap="round" stroke-linejoin="round"/>
<path d="M75 66.6666L78.5754 63.0912C78.9542 62.7125 79.1667 62.1991 79.1667 61.6641C79.1667 60.8995 78.7346 60.2008 78.0508 59.8587L76.2054 58.9362C72.9975 57.332 69.1225 57.9608 66.5862 60.497L62.8575 64.2258C61.2946 65.7887 60.4167 67.9083 60.4167 70.1183V83.3333" stroke="#C70808" stroke-width="1.5" stroke-linecap="round" stroke-linejoin="round"/>
<path d="M25 83.3333L9.06559 67.3987C8.59672 66.93 8.33334 66.2942 8.33334 65.6312V43.75C8.33334 40.2982 11.1316 37.5 14.5833 37.5C18.0351 37.5 20.8333 40.2982 20.8333 43.75V62.5" stroke="#C70808" stroke-width="1.5" stroke-linecap="round" stroke-linejoin="round"/>
<path d="M25 66.6666L21.4245 63.0912C21.046 62.7125 20.8333 62.1991 20.8333 61.6641C20.8333 60.8995 21.2653 60.2008 21.949 59.8587L23.7945 58.9362C27.0027 57.332 30.8775 57.9608 33.4138 60.497L37.1426 64.2258C38.7054 65.7887 39.5833 67.9083 39.5833 70.1183V83.3333" stroke="#C70808" stroke-width="1.5" stroke-linecap="round" stroke-linejoin="round"/>
</svg>
