<svg width="18" height="18" viewBox="0 0 18 18" fill="none" xmlns="http://www.w3.org/2000/svg">
<path fill-rule="evenodd" clip-rule="evenodd" d="M2.10389 9.57959L1.84636 9.00014L2.10373 8.42106C2.98103 6.44712 4.66218 4.94377 6.72151 4.29165C8.20402 3.82219 9.79537 3.82219 11.2779 4.29165C13.3372 4.94377 15.0184 6.44712 15.8957 8.42106L16.153 9.00014L15.8955 9.57959C15.0183 11.5533 13.3374 13.0566 11.2783 13.7088C9.79552 14.1784 8.20388 14.1784 6.72114 13.7088C4.66205 13.0566 2.98112 11.5533 2.10389 9.57959ZM0.561671 7.7357L0.269404 8.3933C0.0976985 8.77964 0.0976988 9.22064 0.269404 9.60697L0.561838 10.2649C1.63523 12.6801 3.69205 14.5195 6.2116 15.3175C8.02592 15.8921 9.97348 15.8921 11.7878 15.3175C14.3073 14.5195 16.3642 12.6801 17.4376 10.2649L17.73 9.60697C17.9017 9.22064 17.9017 8.77964 17.73 8.3933L17.4377 7.7357C16.3642 5.32036 14.3072 3.48083 11.7873 2.68289C9.9733 2.10845 8.0261 2.10845 6.21207 2.68289C3.69224 3.48083 1.63516 5.32036 0.561671 7.7357ZM10.6872 9.00003C10.6872 9.93201 9.93168 10.6875 8.9997 10.6875C8.06772 10.6875 7.3122 9.93201 7.3122 9.00003C7.3122 8.06805 8.06772 7.31253 8.9997 7.31253C9.93168 7.31253 10.6872 8.06805 10.6872 9.00003ZM12.3747 9.00003C12.3747 10.864 10.8637 12.375 8.9997 12.375C7.13574 12.375 5.6247 10.864 5.6247 9.00003C5.6247 7.13607 7.13574 5.62503 8.9997 5.62503C10.8637 5.62503 12.3747 7.13607 12.3747 9.00003Z" fill="#7D7F6C"/>
</svg>
