<svg width="18" height="18" viewBox="0 0 18 18" fill="none" xmlns="http://www.w3.org/2000/svg">
<path fill-rule="evenodd" clip-rule="evenodd" d="M1.83701 3.14501C2.69442 2.20387 3.91748 1.68688 5.355 1.68688C6.66438 1.68688 8.06257 2.30575 8.99897 3.51547C9.93167 2.30639 11.3245 1.68688 12.645 1.68688C14.0779 1.68688 15.3006 2.20123 16.1592 3.14088C17.0098 4.07194 17.4375 5.3477 17.4375 6.76455C17.4375 9.20054 16.1856 11.1611 14.6007 12.6855C13.0194 14.2064 11.0338 15.3659 9.38771 16.2175C9.1434 16.3439 8.8528 16.3433 8.60903 16.2158C6.96287 15.3551 4.97672 14.2042 3.39648 12.6906C1.81063 11.1717 0.5625 9.21661 0.5625 6.76455C0.5625 5.35258 0.987799 4.07717 1.83701 3.14501ZM3.08446 4.28147C2.57256 4.84336 2.25 5.68492 2.25 6.76455C2.25 8.59107 3.16806 10.1351 4.56375 11.472C5.85346 12.7073 7.49 13.705 9.00171 14.5145C10.5044 13.7153 12.1405 12.7104 13.4309 11.4692C14.8303 10.1233 15.75 8.57297 15.75 6.76455C15.75 5.68118 15.4258 4.83998 14.9134 4.27914C14.4088 3.72688 13.6571 3.37438 12.645 3.37438C11.5472 3.37438 10.2901 4.08017 9.80157 5.5667C9.68777 5.91296 9.36448 6.147 9 6.147C8.63552 6.147 8.31223 5.91296 8.19843 5.5667C7.71039 4.08177 6.44087 3.37438 5.355 3.37438C4.3395 3.37438 3.58818 3.72855 3.08446 4.28147Z" fill="#7D7F6C"/>
</svg>
