<svg width="18" height="18" viewBox="0 0 18 18" fill="none" xmlns="http://www.w3.org/2000/svg">
<g clip-path="url(#clip0_276_1123)">
<path d="M11.2517 9.675C12.0415 9.83573 12.8621 9.7377 13.5918 9.39546C14.3216 9.05321 14.9216 8.48496 15.303 7.77492C15.6845 7.06488 15.827 6.25084 15.7094 5.45345C15.5919 4.65607 15.2206 3.91777 14.6505 3.34799C14.0804 2.7782 13.3419 2.40726 12.5445 2.29013C11.747 2.173 10.9331 2.31591 10.2232 2.6977C9.51337 3.07949 8.94543 3.67982 8.60356 4.40973C8.26169 5.13964 8.16408 5.96027 8.32522 6.75" stroke="#7D7F6C" stroke-width="2" stroke-linecap="round" stroke-linejoin="round"/>
<path d="M11.2517 9.675L8.32515 6.75075L2.6904 13.1888C2.40894 13.4699 2.2507 13.8514 2.25049 14.2492C2.25038 14.4462 2.28908 14.6413 2.36437 14.8233C2.43966 15.0053 2.55006 15.1708 2.68928 15.3101C2.82849 15.4495 2.9938 15.5601 3.17575 15.6356C3.35771 15.711 3.55274 15.7499 3.74973 15.75C4.14757 15.7503 4.52919 15.5924 4.81065 15.3113L11.2517 9.675V9.675Z" stroke="#7D7F6C" stroke-width="2" stroke-linecap="round" stroke-linejoin="round"/>
</g>
<defs>
<clipPath id="clip0_276_1123">
<rect width="18" height="18" fill="white"/>
</clipPath>
</defs>
</svg>
