<svg width="18" height="18" viewBox="0 0 18 18" fill="none" xmlns="http://www.w3.org/2000/svg">
<path d="M8.84975 8.175C7.14725 7.7325 6.59975 7.275 6.59975 6.5625C6.59975 5.745 7.35725 5.175 8.62475 5.175C9.95974 5.175 10.4547 5.8125 10.4997 6.75H12.1572C12.1047 5.46 11.3172 4.275 9.74975 3.8925V2.25H7.49975V3.87C6.04475 4.185 4.87475 5.13 4.87475 6.5775C4.87475 8.31 6.30725 9.1725 8.39975 9.675C10.2747 10.125 10.6497 10.785 10.6497 11.4825C10.6497 12 10.2822 12.825 8.62475 12.825C7.07975 12.825 6.47225 12.135 6.38975 11.25H4.73975C4.82975 12.8925 6.05975 13.815 7.49975 14.1225V15.75H9.74975V14.1375C11.2122 13.86 12.3747 13.0125 12.3747 11.475C12.3747 9.345 10.5522 8.6175 8.84975 8.175Z" fill="#7D7F6C"/>
</svg>
