<svg width="18" height="18" viewBox="0 0 18 18" fill="none" xmlns="http://www.w3.org/2000/svg">
<path fill-rule="evenodd" clip-rule="evenodd" d="M11.25 5.0625C11.25 6.30514 10.2426 7.3125 9 7.3125C7.75736 7.3125 6.75 6.30514 6.75 5.0625C6.75 3.81986 7.75736 2.8125 9 2.8125C10.2426 2.8125 11.25 3.81986 11.25 5.0625ZM12.9375 5.0625C12.9375 7.23712 11.1746 9 9 9C6.82538 9 5.0625 7.23712 5.0625 5.0625C5.0625 2.88788 6.82538 1.125 9 1.125C11.1746 1.125 12.9375 2.88788 12.9375 5.0625ZM2.8125 14.0625C2.8125 13.8324 3.0603 13.1525 4.297 12.4214C5.44221 11.7444 7.10976 11.25 9 11.25C10.8902 11.25 12.5578 11.7444 13.703 12.4214C14.9397 13.1525 15.1875 13.8324 15.1875 14.0625C15.1875 14.6838 14.6838 15.1875 14.0625 15.1875H3.9375C3.31618 15.1875 2.8125 14.6838 2.8125 14.0625ZM9 9.5625C4.66875 9.5625 1.125 11.8125 1.125 14.0625C1.125 15.6158 2.3842 16.875 3.9375 16.875H14.0625C15.6158 16.875 16.875 15.6158 16.875 14.0625C16.875 11.8125 13.3312 9.5625 9 9.5625Z" fill="#7D7F6C"/>
</svg>
