<svg width="18" height="18" viewBox="0 0 18 18" fill="none" xmlns="http://www.w3.org/2000/svg">
<path fill-rule="evenodd" clip-rule="evenodd" d="M10.3436 5.62421L10.7384 6.60733L11.7954 6.679L15.3926 6.92291L12.6258 9.23465L11.8128 9.91392L12.0712 10.9413L12.9509 14.4379L9.89728 12.5208L9.00002 11.9575L8.10276 12.5208L5.04917 14.4379L5.9288 10.9413L6.18727 9.91392L5.37426 9.23465L2.6074 6.92291L6.20464 6.679L7.26164 6.60733L7.65644 5.62421L9.00002 2.2784L10.3436 5.62421ZM1.65472 5.29613L6.09048 4.99537L7.74726 0.869644C8.20073 -0.25959 9.79932 -0.259587 10.2528 0.869647L11.9096 4.99537L16.3453 5.29613C17.5594 5.37846 18.0534 6.8988 17.1196 7.67903L13.7078 10.5296L14.7924 14.8412C15.0893 16.0214 13.796 16.961 12.7654 16.3139L9.00002 13.95L5.23462 16.3139C4.20401 16.961 2.91073 16.0213 3.20761 14.8412L4.29229 10.5296L0.880469 7.67903C-0.0533665 6.8988 0.440627 5.37846 1.65472 5.29613Z" fill="#7D7F6C"/>
</svg>
