<svg width="52" height="36" viewBox="0 0 52 36" fill="none" xmlns="http://www.w3.org/2000/svg">
<path d="M31 34.9895H21C15.6957 34.9895 10.6086 32.7858 6.85786 28.8632C3.10714 24.9406 1 19.6203 1 14.0729V1H11V14.0729C11 16.8466 12.0536 19.5067 13.9289 21.4681C15.8043 23.4294 18.3478 24.5312 21 24.5312V1H31V12.7656L31.075 12.7552C33.815 12.3976 36.3358 11.0056 38.1635 8.84092C39.9912 6.67621 40.9999 3.88784 41 1H51L50.145 5.47355C49.6329 8.1511 48.5429 10.671 46.958 12.841C45.3731 15.0109 43.3353 16.7737 41 17.9948V17.9948C43.2709 18.786 45.2966 20.2012 46.865 22.0922C48.4334 23.9832 49.4868 26.2804 49.915 28.7433L51 34.9895H41C40.9999 32.1017 39.9912 29.3133 38.1635 27.1486C36.3358 24.9839 33.815 23.5919 31.075 23.2344V35L31 34.9895Z" stroke="white" stroke-width="2" stroke-linecap="round" stroke-linejoin="round"/>
</svg>
